<svg width="100" viewBox="0 0 80 26" fill="none" xmlns="http://www.w3.org/2000/svg">
<path d="M12.5977 18.7656C12.5977 19.8359 12.4102 20.7734 12.0352 21.5781C11.668 22.375 11.1602 23.0391 10.5117 23.5703C9.87109 24.1016 9.11719 24.5 8.25 24.7656C7.39062 25.0312 6.46484 25.1641 5.47266 25.1641C5.08984 25.1641 4.66797 25.1133 4.20703 25.0117C3.75391 24.9102 3.29297 24.7852 2.82422 24.6367C2.35547 24.4805 1.90234 24.3164 1.46484 24.1445C1.03516 23.9648 0.652344 23.7969 0.316406 23.6406L0.832031 18.8125C1.49609 19.2109 2.23047 19.5156 3.03516 19.7266C3.84766 19.9297 4.64453 20.0312 5.42578 20.0312C5.57422 20.0312 5.75391 20.0273 5.96484 20.0195C6.17578 20.0039 6.375 19.9688 6.5625 19.9141C6.75781 19.8516 6.92188 19.7617 7.05469 19.6445C7.1875 19.5273 7.25391 19.3594 7.25391 19.1406C7.25391 18.9922 7.20703 18.8672 7.11328 18.7656C7.01953 18.6562 6.89844 18.5703 6.75 18.5078C6.60156 18.4375 6.43359 18.3867 6.24609 18.3555C6.05859 18.3164 5.875 18.2891 5.69531 18.2734C5.51562 18.2578 5.34766 18.25 5.19141 18.25C5.03516 18.25 4.91016 18.25 4.81641 18.25C4.14453 18.25 3.53125 18.1328 2.97656 17.8984C2.42969 17.6641 1.95703 17.3398 1.55859 16.9258C1.16797 16.5039 0.863281 16.0078 0.644531 15.4375C0.425781 14.8594 0.316406 14.2344 0.316406 13.5625C0.316406 12.6406 0.5 11.8164 0.867188 11.0898C1.24219 10.3555 1.73828 9.73438 2.35547 9.22656C2.98047 8.71094 3.69531 8.31641 4.5 8.04297C5.30469 7.76953 6.13672 7.63281 6.99609 7.63281C7.37891 7.63281 7.77344 7.64844 8.17969 7.67969C8.58594 7.70312 8.98828 7.75 9.38672 7.82031C9.79297 7.89062 10.1875 7.98047 10.5703 8.08984C10.9531 8.19922 11.3164 8.33594 11.6602 8.5L11.2148 13.2578C10.6836 13.0781 10.125 12.9297 9.53906 12.8125C8.96094 12.6875 8.39453 12.625 7.83984 12.625C7.73828 12.625 7.60547 12.6289 7.44141 12.6367C7.28516 12.6367 7.11719 12.6484 6.9375 12.6719C6.76562 12.6875 6.58984 12.7148 6.41016 12.7539C6.23047 12.793 6.07031 12.8477 5.92969 12.918C5.78906 12.9805 5.67578 13.0664 5.58984 13.1758C5.50391 13.2852 5.46484 13.4141 5.47266 13.5625C5.48047 13.7344 5.54297 13.875 5.66016 13.9844C5.78516 14.0859 5.94141 14.168 6.12891 14.2305C6.32422 14.2852 6.53516 14.3242 6.76172 14.3477C6.99609 14.3711 7.22656 14.3867 7.45312 14.3945C7.67969 14.3945 7.89062 14.3945 8.08594 14.3945C8.28125 14.3867 8.44141 14.3906 8.56641 14.4062C9.19141 14.4453 9.75391 14.5781 10.2539 14.8047C10.7539 15.0312 11.1758 15.332 11.5195 15.707C11.8711 16.082 12.1367 16.5312 12.3164 17.0547C12.5039 17.5703 12.5977 18.1406 12.5977 18.7656ZM27.5977 16.6094C27.5977 17.2969 27.5195 17.9805 27.3633 18.6602C27.2148 19.3398 26.9961 19.9922 26.707 20.6172C26.418 21.2422 26.0625 21.8242 25.6406 22.3633C25.2266 22.9023 24.75 23.3711 24.2109 23.7695C23.6719 24.168 23.0781 24.4805 22.4297 24.707C21.7891 24.9336 21.0977 25.0469 20.3555 25.0469C19.6055 25.0469 18.9062 24.9336 18.2578 24.707C17.6094 24.4805 17.0156 24.168 16.4766 23.7695C15.9453 23.3711 15.4688 22.9023 15.0469 22.3633C14.625 21.8242 14.2695 21.2422 13.9805 20.6172C13.6914 19.9922 13.4688 19.3398 13.3125 18.6602C13.1641 17.9727 13.0898 17.2891 13.0898 16.6094C13.0898 15.9297 13.1641 15.2461 13.3125 14.5586C13.4688 13.8711 13.6914 13.2148 13.9805 12.5898C14.2695 11.9648 14.625 11.3828 15.0469 10.8438C15.4688 10.2969 15.9453 9.82422 16.4766 9.42578C17.0156 9.02734 17.6094 8.71484 18.2578 8.48828C18.9141 8.26172 19.6133 8.14844 20.3555 8.14844C21.0977 8.14844 21.7891 8.26172 22.4297 8.48828C23.0781 8.71484 23.6719 9.02734 24.2109 9.42578C24.75 9.82422 25.2266 10.2969 25.6406 10.8438C26.0625 11.3828 26.418 11.9648 26.707 12.5898C26.9961 13.2148 27.2148 13.8711 27.3633 14.5586C27.5195 15.2461 27.5977 15.9297 27.5977 16.6094ZM22.6523 16.9609C22.6523 16.6172 22.6055 16.2344 22.5117 15.8125C22.418 15.3906 22.2734 14.9961 22.0781 14.6289C21.8828 14.2617 21.6328 13.9531 21.3281 13.7031C21.0234 13.4531 20.6602 13.3281 20.2383 13.3281C19.8086 13.3281 19.4414 13.4531 19.1367 13.7031C18.832 13.9531 18.5781 14.2617 18.375 14.6289C18.1797 14.9961 18.0352 15.3906 17.9414 15.8125C17.8477 16.2344 17.8008 16.6172 17.8008 16.9609C17.8008 17.3047 17.8477 17.6875 17.9414 18.1094C18.0352 18.5312 18.1797 18.9258 18.375 19.293C18.5781 19.6602 18.832 19.9688 19.1367 20.2188C19.4414 20.4688 19.8086 20.5938 20.2383 20.5938C20.6602 20.5938 21.0234 20.4688 21.3281 20.2188C21.6328 19.9688 21.8828 19.6602 22.0781 19.293C22.2734 18.9258 22.418 18.5312 22.5117 18.1094C22.6055 17.6875 22.6523 17.3047 22.6523 16.9609ZM38.8359 18.3203L38.3438 23.5234L28.4766 24.2969C28.5234 21.5703 28.5742 18.8594 28.6289 16.1641C28.6914 13.4688 28.7656 10.7578 28.8516 8.03125H34.9453C34.7656 9.74219 34.5938 11.4531 34.4297 13.1641C34.2656 14.8672 34.1484 16.5859 34.0781 18.3203C34.4453 18.3359 34.8086 18.3438 35.168 18.3438C35.5273 18.3438 35.8906 18.3438 36.2578 18.3438C36.6953 18.3438 37.125 18.3398 37.5469 18.332C37.9688 18.3242 38.3984 18.3203 38.8359 18.3203ZM46.4766 8.14844L45.7969 24.8125L40.6875 24.5781L40.9688 13.4922L39.0938 14.7812L37.3359 10.7734L41.1562 7.91406L46.4766 8.14844ZM63.5508 8.19531L62.707 24.0859L56.5664 24.6484L53.2852 16.1406L52.7695 24.8125H47.4961L47.918 8.19531L53.7773 7.91406L57.832 16.3516L58.0195 8.38281L63.5508 8.19531ZM79.3711 8.21875L73.7227 16.0234L78.4805 24.3203L73.043 25.2812L69.4805 20.2188L69.293 25.5156L64.418 25.7031L64.793 7.75L70.2539 8.05469L69.832 13.3516L73.4648 7.75L79.3711 8.21875Z" fill="white"/>
<circle cx="43" cy="3" r="3" fill="#CA1D62"/>
</svg>
